<?xml version="1.0" encoding="UTF-8" standalone="no"?>
<svg width="76px" height="62px" viewBox="0 0 76 62" version="1.1" xmlns="http://www.w3.org/2000/svg" xmlns:xlink="http://www.w3.org/1999/xlink">
    <!-- Generator: sketchtool 40.3 (33839) - http://www.bohemiancoding.com/sketch -->
    <title>8BD5DCD3-1482-4077-83E8-EC13E3455184</title>
    <desc>Created with sketchtool.</desc>
    <defs>
        <linearGradient x1="50%" y1="100%" x2="50%" y2="1.8878632%" id="linearGradient-1">
            <stop stop-color="#00E9B0" offset="0%"></stop>
            <stop stop-color="#66FFD6" offset="100%"></stop>
        </linearGradient>
    </defs>
    <g id="Page-1" stroke="none" stroke-width="1" fill="none" fill-rule="evenodd">
        <g id="площадка-1340px" transform="translate(-41.000000, -37.000000)">
            <g id="Group" transform="translate(41.000000, 37.000000)">
                <polygon id="Fill-1" fill="#3B5FDC" points="0 44.1840102 3.53472082 44.1840102 3.53472082 40.8702095 0 40.8702095"></polygon>
                <polygon id="Fill-2" fill="#3B5FDC" points="5.30208123 44.4049303 8.83680205 44.4049303 8.83680205 37.5564087 5.30208123 37.5564087"></polygon>
                <polygon id="Fill-3" fill="#3B5FDC" points="10.3832424 44.4049303 13.9179632 44.4049303 13.9179632 30.7078871 10.3832424 30.7078871"></polygon>
                <polygon id="Fill-4" fill="#3B5FDC" points="15.4644036 44.4049303 18.9991244 44.4049303 18.9991244 23.8593655 15.4644036 23.8593655"></polygon>
                <polygon id="Fill-5" fill="#3B5FDC" points="20.5455648 41.0911295 24.0802856 41.0911295 24.0802856 20.5455648 20.5455648 20.5455648"></polygon>
                <polygon id="Fill-6" fill="#3B5FDC" points="25.847646 37.5564087 29.3823668 37.5564087 29.3823668 17.0108439 25.847646 17.0108439"></polygon>
                <polygon id="Fill-7" fill="#3B5FDC" points="30.9288072 40.8702095 34.463528 40.8702095 34.463528 17.0108439 30.9288072 17.0108439"></polygon>
                <polygon id="Fill-8" fill="url(#linearGradient-1)" points="20.5455648 44.4049303 24.0802856 44.4049303 24.0802856 40.8702095 20.5455648 40.8702095"></polygon>
                <polygon id="Fill-9" fill="url(#linearGradient-1)" points="25.847646 44.4049303 29.3823668 44.4049303 29.3823668 37.5564087 25.847646 37.5564087"></polygon>
                <polygon id="Fill-10" fill="url(#linearGradient-1)" points="51.4743719 44.4049303 55.0090927 44.4049303 55.0090927 30.7078871 51.4743719 30.7078871"></polygon>
                <polygon id="Fill-11" fill="url(#linearGradient-1)" points="56.5555331 44.4049303 60.0902539 44.4049303 60.0902539 23.8593655 56.5555331 23.8593655"></polygon>
                <polygon id="Fill-12" fill="url(#linearGradient-1)" points="61.6366943 44.4049303 65.1714151 44.4049303 65.1714151 17.0108439 61.6366943 17.0108439"></polygon>
                <polygon id="Fill-13" fill="url(#linearGradient-1)" points="66.9387755 44.4049303 70.4734963 44.4049303 70.4734963 6.84852159 66.9387755 6.84852159"></polygon>
                <polygon id="Fill-14" fill="url(#linearGradient-1)" points="72.0199367 44.4049303 75.5546575 44.4049303 75.5546575 3.31380077 72.0199367 3.31380077"></polygon>
                <polygon id="Fill-15" fill="#3B5FDC" points="36.0099683 44.4049303 39.5446892 44.4049303 39.5446892 20.5455648 36.0099683 20.5455648"></polygon>
                <polygon id="Fill-16" fill="#3B5FDC" points="41.0911295 44.4049303 44.6258503 44.4049303 44.6258503 23.8593655 41.0911295 23.8593655"></polygon>
                <polygon id="Fill-17" fill="#3B5FDC" points="46.3932107 44.4049303 49.9279316 44.4049303 49.9279316 20.5455648 46.3932107 20.5455648"></polygon>
                <polygon id="Fill-18" fill="#3B5FDC" points="51.4743719 30.7078871 55.0090927 30.7078871 55.0090927 17.0108439 51.4743719 17.0108439"></polygon>
                <polygon id="Fill-19" fill="#3B5FDC" points="56.5555331 23.8593655 60.0902539 23.8593655 60.0902539 10.1623224 56.5555331 10.1623224"></polygon>
                <polygon id="Fill-20" fill="#3B5FDC" points="61.6366943 17.0108439 65.1714151 17.0108439 65.1714151 3.31380077 61.6366943 3.31380077"></polygon>
                <polygon id="Fill-21" fill="#3B5FDC" points="66.9387755 6.84852159 70.4734963 6.84852159 70.4734963 0 66.9387755 0"></polygon>
                <polygon id="Fill-22" fill="#3B5FDC" points="72.0199367 3.31380077 75.5546575 3.31380077 75.5546575 0 72.0199367 0"></polygon>
                <path d="M5.55240431,58.6998584 C5.55240431,58.1295161 5.14711932,57.6406513 4.39058735,57.6406513 L1.91820673,57.6406513 L1.91820673,59.7453431 L4.39058735,59.7453431 C5.12010032,59.7453431 5.55240431,59.3516782 5.55240431,58.6998584 L5.55240431,58.6998584 Z M5.37678081,55.00607 C5.37678081,54.4357277 4.97149583,54.0149037 4.32303985,54.0149037 L1.91820673,54.0149037 L1.91820673,55.9837997 L4.32303985,55.9837997 C4.97149583,55.9837997 5.37678081,55.5764123 5.37678081,55.00607 L5.37678081,55.00607 Z M0,61.4157742 L0,52.3580521 L4.74183434,52.3580521 C6.45754078,52.3580521 7.33565825,53.457998 7.33565825,54.6665806 C7.33565825,55.8074081 6.63330648,56.5678645 5.7820658,56.7442561 C6.74124027,56.8936315 7.51128174,57.8307654 7.51128174,58.9713071 C7.51128174,60.329265 6.60614527,61.4157742 4.89043883,61.4157742 L0,61.4157742 Z" id="Fill-23" fill="#3B5FDC"></path>
                <path d="M18.5557296,56.9973732 C18.5557296,55.3164598 17.4652654,54.0524129 15.7888974,54.0524129 C14.1125294,54.0524129 13.0358378,55.3164598 13.0358378,56.9973732 C13.0358378,58.6648393 14.1125294,59.9424751 15.7888974,59.9424751 C17.4652654,59.9424751 18.5557296,58.6648393 18.5557296,56.9973732 M11.0460026,56.9973732 C11.0460026,54.2944644 13.0494668,52.3580521 15.7888974,52.3580521 C18.5419571,52.3580521 20.5455648,54.2944644 20.5455648,56.9973732 C20.5455648,59.7004236 18.5419571,61.6366943 15.7888974,61.6366943 C13.0494668,61.6366943 11.0460026,59.7004236 11.0460026,56.9973732" id="Fill-26" fill="#3B5FDC"></path>
                <path d="M31.3690925,56.9973732 C31.3690925,55.3164598 30.2786284,54.0524129 28.6022604,54.0524129 C26.9258924,54.0524129 25.8492007,55.3164598 25.8492007,56.9973732 C25.8492007,58.6648393 26.9258924,59.9424751 28.6022604,59.9424751 C30.2786284,59.9424751 31.3690925,58.6648393 31.3690925,56.9973732 M23.8593655,56.9973732 C23.8593655,54.2944644 25.8628297,52.3580521 28.6022604,52.3580521 C31.3553201,52.3580521 33.3589277,54.2944644 33.3589277,56.9973732 C33.3589277,59.7004236 31.3553201,61.6366943 28.6022604,61.6366943 C25.8628297,61.6366943 23.8593655,59.7004236 23.8593655,56.9973732" id="Fill-28" fill="#3B5FDC"></path>
                <path d="M36.4518084,60.2093526 L37.5053033,58.7547938 C38.1483457,59.41481 39.1471136,59.9669498 40.4058347,59.9669498 C41.4730114,59.9669498 41.9930619,59.4820023 41.9930619,58.9704048 C41.9930619,57.3813195 36.7391252,58.4719905 36.7391252,55.0918175 C36.7391252,53.597 38.0525734,52.3580521 40.2006084,52.3580521 C41.6510182,52.3580521 42.8550123,52.7889905 43.7578639,53.6104668 L42.6771495,55.0110166 C41.9383349,54.3376753 40.9531048,54.0279384 40.0227457,54.0279384 C39.1881588,54.0279384 38.7231233,54.3915426 38.7231233,54.9302156 C38.7231233,56.357699 43.9630902,55.4015545 43.9630902,58.7547938 C43.9630902,60.3977464 42.7729218,61.6366943 40.3100625,61.6366943 C38.5587982,61.6366943 37.3000771,61.0576208 36.4518084,60.2093526" id="Fill-30" fill="#3B5FDC"></path>
                <polygon id="Fill-32" fill="#3B5FDC" points="49.507217 61.4157742 49.507217 54.0556424 46.8350509 54.0556424 46.8350509 52.3580521 54.1254125 52.3580521 54.1254125 54.0556424 51.4668055 54.0556424 51.4668055 61.4157742"></polygon>
                <polygon id="Fill-34" fill="#3B5FDC" points="57.8810534 61.4157742 57.8810534 52.3580521 64.2877349 52.3580521 64.2877349 54.0556424 59.8083444 54.0556424 59.8083444 55.9702201 64.1927206 55.9702201 64.1927206 57.6676675 59.8083444 57.6676675 59.8083444 59.7183269 64.2877349 59.7183269 64.2877349 61.4157742"></polygon>
                <path d="M73.3222798,55.2778045 C73.3222798,54.5173481 72.7416089,54.0556424 71.9720707,54.0556424 L69.9604709,54.0556424 L69.9604709,56.4999667 L71.9720707,56.4999667 C72.7416089,56.4999667 73.3222798,56.038261 73.3222798,55.2778045 L73.3222798,55.2778045 Z M73.1332704,61.4157742 L71.3646826,58.197414 L69.9604709,58.197414 L69.9604709,61.4157742 L68.0433758,61.4157742 L68.0433758,52.3580521 L72.2555847,52.3580521 C74.1321778,52.3580521 75.2797348,53.5939368 75.2797348,55.2778045 C75.2797348,56.8801949 74.2806852,57.7357083 73.308637,57.9667041 L75.3337375,61.4157742 L73.1332704,61.4157742 Z" id="Fill-36" fill="#3B5FDC"></path>
                <polygon id="Fill-38" fill="url(#linearGradient-1)" points="30.9288072 44.4049303 34.463528 44.4049303 34.463528 40.8702095 30.9288072 40.8702095"></polygon>
            </g>
        </g>
    </g>
</svg>