<?xml version="1.0" encoding="UTF-8" standalone="no"?>
<svg width="30px" height="30px" viewBox="0 0 30 30" version="1.1" xmlns="http://www.w3.org/2000/svg" xmlns:xlink="http://www.w3.org/1999/xlink">
    <!-- Generator: sketchtool 40.3 (33839) - http://www.bohemiancoding.com/sketch -->
    <title>E3E4EB66-5ACB-470B-B1C4-5655771F5A0C</title>
    <desc>Created with sketchtool.</desc>
    <defs></defs>
    <g id="Page-1" stroke="none" stroke-width="1" fill="none" fill-rule="evenodd">
        <g id="площадка-1340px" transform="translate(-850.000000, -4147.000000)" fill="#FFFFFF">
            <path d="M850,4148.99162 C850,4147.89168 850.89784,4147 851.991617,4147 L878.008383,4147 C879.108323,4147 880,4147.89784 880,4148.99162 L880,4175.00838 C880,4176.10832 879.10216,4177 878.008383,4177 L851.991617,4177 C850.891677,4177 850,4176.10216 850,4175.00838 L850,4148.99162 Z M866.388823,4169.2 L863.462345,4169.2 L863.462345,4162.29913 L862,4162.29913 L862,4159.92132 L863.462345,4159.92132 L863.462345,4158.49376 C863.462345,4156.55406 864.287624,4155.4 866.633814,4155.4 L868.586588,4155.4 L868.586588,4157.77868 L867.366104,4157.77868 C866.452754,4157.77868 866.3924,4158.11096 866.3924,4158.73111 L866.388376,4159.92132 L868.6,4159.92132 L868.34115,4162.29913 L866.388376,4162.29913 L866.388376,4169.2 L866.388823,4169.2 Z" id="Combined-Shape-Copy"></path>
        </g>
    </g>
</svg>