<?xml version="1.0" encoding="UTF-8" standalone="no"?>
<svg width="30px" height="30px" viewBox="0 0 30 30" version="1.1" xmlns="http://www.w3.org/2000/svg" xmlns:xlink="http://www.w3.org/1999/xlink">
    <!-- Generator: sketchtool 40.3 (33839) - http://www.bohemiancoding.com/sketch -->
    <title>4A1D7101-6AA7-40C6-92EF-63AB1F8AA9AC</title>
    <desc>Created with sketchtool.</desc>
    <defs></defs>
    <g id="Page-1" stroke="none" stroke-width="1" fill="none" fill-rule="evenodd">
        <g id="площадка-1340px" transform="translate(-930.000000, -4147.000000)" fill="#FFFFFF">
            <path d="M942.168914,4159.15693 943.360168,4160.33921 944.821511,4160.33921 C946.283413,4160.33921 947.474108,4159.15713 947.474108,4157.6997 C947.474108,4156.24171 946.283609,4155.05994 944.821511,4155.05994 C943.359972,4155.05994 942.168914,4156.24191 942.168914,4157.6997 Z M946.50255,4164.2821 C947.342978,4164.09201 948.153514,4163.76187 948.900067,4163.29633 C949.465045,4162.94264 949.635255,4162.20117 949.279272,4161.64022 C948.923535,4161.07805 948.17723,4160.90881 947.611263,4161.2625 C945.920032,4162.31841 943.742628,4162.31817 942.052385,4161.2625 C941.486418,4160.90881 940.739866,4161.07805 940.38487,4161.64022 C940.028886,4162.20166 940.198602,4162.94264 940.763581,4163.29633 C941.510134,4163.76138 942.32067,4164.09201 943.161097,4164.2821 L940.852762,4166.57397 C940.380917,4167.04294 940.380917,4167.8033 940.853257,4168.27227 C941.089673,4168.50651 941.398966,4168.62375 941.708259,4168.62375 C942.018047,4168.62375 942.327834,4168.50651 942.56425,4168.27227 L944.831577,4166.02014 L947.10088,4168.27227 C947.572725,4168.74124 948.338299,4168.74124 948.810638,4168.27227 C949.283472,4167.8033 949.283472,4167.04245 948.810638,4166.57397 L946.50255,4164.2821 Z" id="Combined-Shape-Copy-2"></path>
        </g>
    </g>
</svg>