<?xml version="1.0" encoding="UTF-8" standalone="no"?>
<svg width="30px" height="30px" viewBox="0 0 30 30" version="1.1" xmlns="http://www.w3.org/2000/svg" xmlns:xlink="http://www.w3.org/1999/xlink">
    <!-- Generator: sketchtool 40.3 (33839) - http://www.bohemiancoding.com/sketch -->
    <title>E741733E-BB56-4D56-B959-D168AA2B3B6C</title>
    <desc>Created with sketchtool.</desc>
    <defs></defs>
    <g id="Page-1" stroke="none" stroke-width="1" fill="none" fill-rule="evenodd">
        <g id="площадка-1340px" transform="translate(-770.000000, -4147.000000)" fill="#F6F6F6">
            <path d="M770,4148.99162 C770,4147.89168 770.89784,4147 771.991617,4147 L798.008383,4147 C799.108323,4147 800,4147.89784 800,4148.99162 L800,4175.00838 C800,4176.10832 799.10216,4177 798.008383,4177 L771.991617,4177 C770.891677,4177 770,4176.10216 770,4175.00838 L770,4148.99162 Z M791.785983,4163.52849 C791.890122,4163.05934 791.944309,4162.57433 791.944309,4162.07513 C791.944309,4158.33614 788.870085,4155.30421 785.077046,4155.30421 C784.676576,4155.30421 784.284572,4155.33843 783.901881,4155.40271 C783.288899,4155.02205 782.562465,4154.8 781.783537,4154.8 C779.583067,4154.8 777.8,4156.55805 777.8,4158.72765 C777.8,4159.45224 778.000659,4160.13092 778.347789,4160.7136 C778.25635,4161.15353 778.208937,4161.60932 778.208937,4162.07513 C778.208937,4165.81579 781.283161,4168.84689 785.077046,4168.84689 C785.506303,4168.84689 785.927093,4168.80849 786.334337,4168.73419 C786.895673,4169.03137 787.536595,4169.2 788.21731,4169.2 C790.416933,4169.2 792.2,4167.44195 792.2,4165.27235 C792.2,4164.64626 792.050988,4164.0544 791.785983,4163.52849 Z M788.544967,4165.29238 C788.228316,4165.73565 787.75842,4166.0871 787.149671,4166.3367 C786.547695,4166.58296 785.825494,4166.70817 785.004233,4166.70817 C784.017027,4166.70817 783.190687,4166.53704 782.544685,4166.19979 C782.083255,4165.95437 781.703104,4165.62212 781.413547,4165.20974 C781.122295,4164.79569 780.97413,4164.38414 780.97413,4163.98678 C780.97413,4163.73885 781.070649,4163.52431 781.260301,4163.34817 C781.449106,4163.17287 781.689558,4163.08522 781.977422,4163.08522 C782.213641,4163.08522 782.417686,4163.1545 782.582785,4163.29141 C782.740263,4163.42414 782.875729,4163.62031 782.985795,4163.87242 C783.106867,4164.1479 783.239793,4164.37913 783.379492,4164.56111 C783.514111,4164.73809 783.708843,4164.88584 783.955221,4165.00104 C784.204139,4165.11708 784.540263,4165.17635 784.953434,4165.17635 C785.520696,4165.17635 785.986359,4165.05697 786.336877,4164.82073 C786.678928,4164.59117 786.844873,4164.31402 786.844873,4163.97593 C786.844873,4163.7088 786.758514,4163.49927 786.579868,4163.33315 C786.392756,4163.16118 786.146378,4163.02762 785.84666,4162.93496 C785.535089,4162.83979 785.110913,4162.73544 784.58683,4162.62692 C783.873942,4162.47666 783.268579,4162.29802 782.78683,4162.09683 C782.294073,4161.88981 781.89699,4161.60264 781.606585,4161.24452 C781.311947,4160.88056 781.162935,4160.42477 781.162935,4159.88717 C781.162935,4159.37628 781.319567,4158.91464 781.628598,4158.51729 C781.935936,4158.12243 782.384666,4157.81523 782.962088,4157.6057 C783.532738,4157.39784 784.210066,4157.29183 784.97714,4157.29183 C785.590969,4157.29183 786.129445,4157.36278 786.579868,4157.49969 C787.032832,4157.63826 787.413829,4157.82609 787.714393,4158.05732 C788.015804,4158.29023 788.241863,4158.53816 788.382408,4158.79694 C788.524647,4159.05823 788.596613,4159.31784 788.596613,4159.56995 C788.596613,4159.81203 788.502634,4160.03158 788.314675,4160.22358 C788.126717,4160.41642 787.889652,4160.51409 787.609407,4160.51409 C787.355409,4160.51409 787.156444,4160.45231 787.018438,4160.33294 C786.889746,4160.21941 786.75682,4160.04494 786.608655,4159.79367 C786.437629,4159.47311 786.230198,4159.22017 785.992286,4159.04237 C785.761148,4158.86873 785.375071,4158.78108 784.845061,4158.78108 C784.353151,4158.78108 783.952681,4158.87875 783.654657,4159.07075 C783.368485,4159.25607 783.229633,4159.4681 783.229633,4159.72021 C783.229633,4159.87464 783.274506,4160.0032 783.366792,4160.11339 C783.464158,4160.23277 783.602164,4160.33461 783.775729,4160.42059 C783.956068,4160.51075 784.14318,4160.5817 784.328598,4160.63179 C784.519097,4160.68438 784.839981,4160.76118 785.278551,4160.86136 C785.834807,4160.9799 786.34619,4161.11096 786.79746,4161.2537 C787.254657,4161.39896 787.650047,4161.5751 787.972625,4161.78296 C788.301129,4161.99416 788.5619,4162.26463 788.746472,4162.58852 C788.931891,4162.91409 789.02587,4163.31562 789.02587,4163.78226 C789.02587,4164.33906 788.864158,4164.84828 788.544967,4165.29238 Z" id="Combined-Shape-Copy-5"></path>
        </g>
    </g>
</svg>