<?xml version="1.0" encoding="UTF-8" standalone="no"?>
<svg width="30px" height="30px" viewBox="0 0 30 30" version="1.1" xmlns="http://www.w3.org/2000/svg" xmlns:xlink="http://www.w3.org/1999/xlink">
    <!-- Generator: sketchtool 40.3 (33839) - http://www.bohemiancoding.com/sketch -->
    <title>BBB691B3-3A1D-4892-AE4E-770D52533590</title>
    <desc>Created with sketchtool.</desc>
    <defs></defs>
    <g id="Page-1" stroke="none" stroke-width="1" fill="none" fill-rule="evenodd">
        <g id="площадка-1340px" transform="translate(-810.000000, -4147.000000)">
            <g id="telegram" transform="translate(810.000000, 4147.000000)">
                <rect id="Rectangle" fill="#FFFFFF" x="0" y="0" width="30" height="30" rx="2"></rect>
                <path d="M19.6500326,21.75 C19.5321417,21.75 19.4150472,21.7151106 19.314601,21.6470047 L15.5197065,19.0728394 L13.4843348,20.5373958 C13.3247041,20.6521802 13.1189525,20.6810953 12.9335928,20.6148215 C12.7484721,20.5483883 12.6078792,20.3950504 12.5576959,20.2049114 L11.5357086,16.3318743 L7.88403577,14.9355832 C7.65414838,14.847643 7.50168668,14.6277126 7.5000139,14.3815753 C7.49834112,14.1354381 7.64777589,13.9134367 7.8765481,13.8223898 L21.7615555,8.29744536 C21.8245635,8.27068092 21.8912356,8.25522764 21.9584653,8.25108553 C21.9825214,8.24965172 22.0066572,8.24965172 22.0306337,8.25100587 C22.1698725,8.2592901 22.3066419,8.31600522 22.4133811,8.42067328 C22.4244533,8.43150651 22.4349679,8.4425787 22.4449249,8.45412883 C22.5333431,8.55513271 22.5819333,8.67828099 22.5910937,8.80373928 C22.5933241,8.83528308 22.5931648,8.86722516 22.5903768,8.89916724 C22.5884651,8.92194888 22.5851992,8.94465086 22.5805791,8.96719352 L20.2368588,21.2644166 C20.1991815,21.4619637 20.0647221,21.6273297 19.8789641,21.7043571 C19.8052823,21.734945 19.7274583,21.75 19.6500326,21.75 Z M13.0388981,17.3451791 L13.4915039,19.0601741 L14.4666534,18.3584839 L13.1897667,17.4923039 C13.130423,17.4521572 13.0796024,17.4021332 13.0388981,17.3451791 Z M9.74121685,14.366361 L12.2486304,15.3250217 C12.4282548,15.3936853 12.5638294,15.5447131 12.6128975,15.7306304 L12.9308845,16.935747 C12.9454616,16.7967471 13.0084695,16.6659519 13.1108276,16.5674173 L19.386849,10.5283727 L9.74121685,14.366361 Z M15.8529078,17.8550576 L19.2332721,20.1479573 L21.056918,10.5793526 L14.4703972,16.9172667 L15.8369766,17.844304 C15.8424729,17.8477292 15.8477302,17.8513934 15.8529078,17.8550576 Z" id="Combined-Shape" fill="#0CC3D5"></path>
            </g>
        </g>
    </g>
</svg>