<?xml version="1.0" encoding="UTF-8" standalone="no"?>
<svg width="30px" height="30px" viewBox="0 0 30 30" version="1.1" xmlns="http://www.w3.org/2000/svg" xmlns:xlink="http://www.w3.org/1999/xlink">
    <!-- Generator: sketchtool 40.3 (33839) - http://www.bohemiancoding.com/sketch -->
    <title>33DE5C98-7DF3-4BBA-8069-38AC706E2AD4</title>
    <desc>Created with sketchtool.</desc>
    <defs></defs>
    <g id="Page-1" stroke="none" stroke-width="1" fill="none" fill-rule="evenodd">
        <g id="площадка-1340px" transform="translate(-890.000000, -4147.000000)" fill="#FFFFFF">
            <path d="M890,4148.99162  C905.882747,4167.23787 906.207607,4167.20244 906.373999,4167.02701 C906.526305,4166.86627 906.521023,4166.56295 906.521023,4166.56295 C906.521023,4166.56295 906.500774,4165.14656 907.170744,4164.93743 C907.831029,4164.73175 908.678836,4166.30715 909.578585,4166.91294 C910.258239,4167.37095 910.774142,4167.27071 910.774142,4167.27071 L913.178462,4167.23787 C913.178462,4167.23787 914.435645,4167.16182 913.839628,4166.19135 C913.790326,4166.11184 913.491877,4165.47322 912.052455,4164.16139 C910.544363,4162.78821 910.74685,4163.01031 912.562195,4160.63468 C913.667953,4159.18804 914.109904,4158.30485 913.971685,4157.92721 C913.840508,4157.56598 913.027036,4157.66191 913.027036,4157.66191 L910.320746,4157.67832 C910.320746,4157.67832 910.120019,4157.65154 909.971235,4157.73882 C909.825972,4157.82437 909.731771,4158.024 909.731771,4158.024 C909.731771,4158.024 909.303906,4159.14311 908.732539,4160.09543 C907.527298,4162.10378 907.04573,4162.21008 906.848525,4162.08564 C906.389846,4161.79441 906.504296,4160.91727 906.504296,4160.29419 C906.504296,4158.3472 906.805386,4157.53574 905.918843,4157.32574 C905.624795,4157.25574 905.408222,4157.20994 904.655496,4157.20216 C903.689719,4157.19266 902.872725,4157.20562 902.409645,4157.42771 C902.101512,4157.57549 901.863809,4157.9056 902.009072,4157.92462 C902.187789,4157.94795 902.592764,4158.03177 902.807577,4158.31868 C903.084897,4158.68941 903.075213,4159.52075 903.075213,4159.52075 C903.075213,4159.52075 903.234562,4161.81256 902.702812,4162.09687 C902.338334,4162.29217 901.838278,4161.89379 900.763333,4160.07124 C900.213095,4159.13792 899.797556,4158.10609 899.797556,4158.10609 C899.797556,4158.10609 899.717441,4157.91338 899.573939,4157.80968 C899.400504,4157.68437 899.158399,4157.64549 899.158399,4157.64549 L896.586807,4157.66191 C896.586807,4157.66191 896.20032,4157.67228 896.058579,4157.83733 C895.932685,4157.98338 896.048895,4158.28671 896.048895,4158.28671 C896.048895,4158.28671 898.062325,4162.91093 900.342511,4165.24162 C902.433416,4167.37787 904.806922,4167.23787 904.806922,4167.23787 L905.882747,4167.23787 Z" id="Combined-Shape-Copy-3"></path>
        </g>
    </g>
</svg>